Coordinates
version=1
nRows=26
nColumns=24
inDegrees=yes

Units are S.I. units (second, meters, Newtons, ...)
Angles are in degrees.

endheader
time	pelvis_tilt	pelvis_list	pelvis_rotation	pelvis_tx	pelvis_ty	pelvis_tz	hip_flexion_r	hip_adduction_r	hip_rotation_r	knee_angle_r	ankle_angle_r	subtalar_angle_r	mtp_angle_r	hip_flexion_l	hip_adduction_l	hip_rotation_l	knee_angle_l	ankle_angle_l	subtalar_angle_l	mtp_angle_l	lumbar_extension	lumbar_bending	lumbar_rotation
      2.57000000	      8.48028268	     -2.12379772	     -7.33862899	      1.07514511	      0.98049561	      0.07113652	    -22.94958134	     -4.17195299	    -10.44037214	    -34.29302417	    -11.96696627	      5.23677759	     29.43336382	     14.05940368	     -5.16373884	    -27.48139279	    -23.15167222	     -6.64379016	     -7.23683310	     10.24861534	    -11.30013910	    -10.76375695	    -15.33353560
      2.57500000	      8.52000415	     -2.21130773	     -6.96961748	      1.08196177	      0.98186222	      0.07005492	    -22.25524830	     -4.10184005	    -10.24877125	    -35.75845487	    -12.62987025	      4.78828501	     27.33504256	     13.66076112	     -5.06579870	    -27.14687090	    -23.20291175	     -6.25076512	     -7.12282626	      9.45450363	    -11.43714125	    -10.64974227	    -15.69528999
      2.58000000	      8.55724339	     -2.31011361	     -6.60041158	      1.08870644	      0.98323792	      0.06900249	    -21.53050748	     -4.00544522	    -10.05390520	    -37.21811360	    -13.08594633	      4.35064582	     25.12225838	     13.25718706	     -4.98641002	    -26.81063360	    -23.23739951	     -5.86178103	     -6.99563215	      8.71661275	    -11.57529166	    -10.52058443	    -16.05435488
      2.58500000	      8.59104865	     -2.41468019	     -6.23305848	      1.09540347	      0.98463083	      0.06796557	    -20.77909839	     -3.89054501	     -9.86392483	    -38.66137777	    -13.34636014	      3.91590127	     22.92606176	     12.84541861	     -4.91715649	    -26.47138910	    -23.24494838	     -5.47083643	     -6.84860733	      7.95303289	    -11.70791860	    -10.37874142	    -16.40884173
      2.59000000	      8.64821522	     -2.54247434	     -5.87673086	      1.10203050	      0.98608262	      0.06698453	    -20.03892376	     -3.73903609	     -9.66419606	    -40.03497138	    -13.65671831	      3.25635331	     22.29117358	     12.39893861	     -4.87952079	    -26.15005416	    -23.24019851	     -5.16163021	     -6.82547758	      7.79910731	    -11.87794546	    -10.21810349	    -16.77401782
      2.59500000	      8.67206356	     -2.65258982	     -5.50916543	      1.10861134	      0.98748679	      0.06598518	    -19.23011277	     -3.59603649	     -9.49594317	    -41.46551689	    -13.30241477	      3.03822096	     18.93397188	     11.97768843	     -4.82708010	    -25.80072685	    -23.19979335	     -4.72375912	     -6.56816230	      6.56186592	    -12.00513734	    -10.06404483	    -17.14920228
      2.60000000	      8.67820274	     -2.78009826	     -5.14043101	      1.11509611	      0.98885608	      0.06497357	    -18.38920492	     -3.43349895	     -9.37601766	    -42.80709418	    -13.23641756	      2.57374070	     18.77253157	     11.58811274	     -4.80068354	    -25.43745345	    -23.16861307	     -4.48170457	     -6.50238804	      6.54642421	    -12.12240319	     -9.87562105	    -17.49155266
      2.60500000	      8.71952227	     -2.92152159	     -4.78306449	      1.12156477	      0.99030699	      0.06405004	    -17.57089577	     -3.24032939	     -9.23603240	    -44.13918846	    -12.64628879	      2.27962847	     15.64262286	     11.12860254	     -4.79449269	    -25.09851790	    -23.09583412	     -4.03359034	     -6.27885142	      5.38787791	    -12.27483987	     -9.68714651	    -17.84481070
      2.61000000	      8.75428062	     -3.07544923	     -4.42304700	      1.12799188	      0.99173578	      0.06312389	    -16.74871173	     -3.03255740	     -9.15404580	    -45.36406359	    -12.24793324	      1.75450476	     15.31848721	     10.68116080	     -4.80814368	    -24.75850856	    -23.01862068	     -3.76042588	     -6.21367328	      5.29676088	    -12.41926886	     -9.47254082	    -18.17672326
      2.61500000	      8.77983450	     -3.21041285	     -4.07066966	      1.13434870	      0.99313322	      0.06220677	    -15.88549012	     -2.85225670	     -9.10157977	    -46.59900563	    -11.48693960	      1.52686392	     13.42208066	     10.23691030	     -4.81028091	    -24.42701166	    -22.92632306	     -3.38525939	     -5.98457418	      4.39186058	    -12.55847203	     -9.27923451	    -18.53433935
      2.62000000	      8.79496732	     -3.35885689	     -3.71932227	      1.14064902	      0.99452617	      0.06130726	    -15.01473780	     -2.65495600	     -9.08652073	    -47.72290555	    -10.88231642	      1.14382026	     13.41525003	      9.79511632	     -4.83045736	    -24.09288146	    -22.79508454	     -3.17238232	     -5.86192912	      4.38086193	    -12.68512988	     -9.06387686	    -18.86605145
      2.62500000	      8.82236959	     -3.50663088	     -3.35773830	      1.14691511	      0.99590883	      0.06041842	    -14.15282590	     -2.46120379	     -9.13635855	    -48.78541551	    -10.19353396	      0.76935175	     13.37747952	      9.34603439	     -4.86164328	    -23.78821721	    -22.67663796	     -2.94819832	     -5.71825788	      4.33083523	    -12.82632740	     -8.84739707	    -19.21635916
      2.63000000	      8.85673651	     -3.66416540	     -3.02139523	      1.15316474	      0.99729849	      0.05957002	    -13.28809005	     -2.26156146	     -9.18234784	    -49.79941691	     -9.23687479	      0.53443287	     11.89032711	      8.87116620	     -4.90757789	    -23.49011912	    -22.53238255	     -2.54979777	     -5.46725247	      3.08465519	    -12.97176559	     -8.61782427	    -19.52805854
      2.63500000	      8.88035723	     -3.80297176	     -2.67572593	      1.15937375	      0.99864866	      0.05871879	    -12.41544271	     -2.09102182	     -9.29958694	    -50.71630462	     -8.43641772	      0.24992117	     11.97372952	      8.40765605	     -4.94198270	    -23.22315919	    -22.37211494	     -2.34447450	     -5.30590539	      3.09497281	    -13.10369434	     -8.40635360	    -19.86165279
      2.64000000	      8.89491688	     -3.94980114	     -2.33767956	      1.16553531	      0.99996503	      0.05787872	    -11.53335154	     -1.91823207	     -9.44537909	    -51.54979014	     -7.61111125	     -0.01778557	     12.05702342	      7.95484543	     -4.99112921	    -22.95126350	    -22.20457697	     -2.14231182	     -5.13806601	      3.06839919	    -13.22228276	     -8.17788716	    -20.17297295
      2.64500000	      8.91798795	     -4.09176080	     -2.00213842	      1.17167252	      1.00125278	      0.05705848	    -10.65848714	     -1.75812376	     -9.62508619	    -52.31102220	     -6.75116710	     -0.25510785	     12.15542990	      7.49165865	     -5.04399079	    -22.69887767	    -22.03333409	     -1.94452806	     -4.96374748	      3.02170676	    -13.34829293	     -7.95562088	    -20.48404420
      2.65000000	      8.93573615	     -4.22952672	     -1.66704661	      1.17780395	      1.00251518	      0.05625466	     -9.78630243	     -1.60635836	     -9.83525320	    -52.98023794	     -5.87853404	     -0.46285276	     12.27078198	      7.02830920	     -5.09977175	    -22.47585333	    -21.84454376	     -1.74797364	     -4.76404241	      2.95696022	    -13.46531664	     -7.73520343	    -20.79729526
      2.65500000	      8.96667542	     -4.36879316	     -1.35723094	      1.18389945	      1.00377723	      0.05548242	     -8.94053759	     -1.46288471	    -10.05300646	    -53.54419831	     -4.96903488	     -0.64046539	     12.40519544	      6.53631309	     -5.16177026	    -22.27909332	    -21.63050115	     -1.58016706	     -4.57505645	      2.91443393	    -13.59458187	     -7.50818402	    -21.05883454
      2.66000000	      8.94403078	     -4.49173892	     -1.02435939	      1.18991332	      1.00488662	      0.05470686	     -8.01904506	     -1.34267319	    -10.33144788	    -54.07249655	     -4.12382447	     -0.78742833	     12.56910899	      6.13594901	     -5.22218294	    -22.06241215	    -21.47058355	     -1.34530775	     -4.31382143	      2.79550001	    -13.67082440	     -7.30239164	    -21.39853868
      2.66500000	      8.97715995	     -4.61477968	     -0.72261413	      1.19597530	      1.00606435	      0.05396756	     -7.18822153	     -1.22999515	    -10.60302611	    -54.47442637	     -3.21552794	     -0.93917497	     12.73019863	      5.64186397	     -5.28203103	    -21.90931572	    -21.25194043	     -1.19518215	     -4.12583816	      2.73577835	    -13.79334904	     -7.09000232	    -21.65023988
      2.67000000	      8.97907940	     -4.73182822	     -0.37466581	      1.20198196	      1.00713899	      0.05318353	     -6.33493872	     -1.12590182	    -10.94448428	    -54.77491315	     -2.52329545	     -1.11567815	     13.88718192	      5.21227461	     -5.34604091	    -21.69419313	    -21.09424446	     -0.72019214	     -3.69827970	      0.95882342	    -13.89253002	     -6.88027600	    -21.99500135
      2.67500000	      8.96246501	     -4.83477500	     -0.07368634	      1.20796225	      1.00814364	      0.05248625	     -5.45725568	     -1.04108273	    -11.25323603	    -55.02761246	     -1.68214808	     -1.23986580	     14.04955416	      4.79227547	     -5.40269568	    -21.54763141	    -20.90491381	     -0.55287425	     -3.48385443	      0.98758998	    -13.95854013	     -6.69336531	    -22.27743027
      2.68000000	      8.96894203	     -4.93410484	      0.21726296	      1.21388983	      1.00914018	      0.05178927	     -4.61533881	     -0.96977633	    -11.58585617	    -55.19178587	     -0.85298859	     -1.37011779	     14.20379142	      4.34692805	     -5.45928664	    -21.41663160	    -20.70916724	     -0.41315469	     -3.27510161	      1.00501372	    -14.05615603	     -6.50344112	    -22.53060310
      2.68500000	      8.93864115	     -5.03191274	      0.56053254	      1.21979950	      1.01002082	      0.05105242	     -3.75397779	     -0.89581881	    -11.97339941	    -55.25791302	     -0.13890637	     -1.46908164	     14.45312844	      3.96365427	     -5.51926629	    -21.20630600	    -20.53710091	     -0.19951597	     -2.99266823	      1.00666111	    -14.11697015	     -6.31106101	    -22.87872103
      2.69000000	      8.96305088	     -5.11453225	      0.88187984	      1.22577695	      1.01094924	      0.05033702	     -2.99066739	     -0.84588136	    -12.37486103	    -55.18326219	      0.36957884	     -1.75974889	     16.14337025	      3.49802696	     -5.56659932	    -21.05817809	    -20.33836507	      0.05736063	     -2.70374899	      0.55910723	    -14.21645730	     -6.13316749	    -23.17358269
      2.69500000	      8.92830948	     -5.18981805	      1.15326383	      1.23163687	      1.01173408	      0.04972616	     -2.13628949	     -0.80000298	    -12.70849693	    -55.11042770	      1.08315047	     -1.88416954	     16.25536758	      3.10845518	     -5.61670857	    -20.95586919	    -20.15747460	      0.18317236	     -2.50984087	      0.58970340	    -14.26236783	     -5.97508764	    -23.42014686
